<svg width="14" height="18" viewBox="0 0 14 18" fill="none" xmlns="http://www.w3.org/2000/svg">
<path d="M9.11035 3.37207C9.6167 2.75781 9.97363 1.91943 9.97363 1.07275C9.97363 0.956543 9.96533 0.840332 9.94873 0.749023C9.11865 0.782227 8.12256 1.29688 7.5332 1.99414C7.06006 2.52539 6.62842 3.37207 6.62842 4.21875C6.62842 4.35156 6.65332 4.47607 6.66162 4.51758C6.71143 4.52588 6.79443 4.54248 6.88574 4.54248C7.62451 4.54248 8.5542 4.04443 9.11035 3.37207ZM9.69141 4.7168C8.45459 4.7168 7.44189 5.47217 6.79443 5.47217C6.10547 5.47217 5.20898 4.7666 4.12988 4.7666C2.07959 4.7666 0.00439453 6.45996 0.00439453 9.64746C0.00439453 11.6396 0.768066 13.7397 1.72266 15.0928C2.53613 16.2383 3.25 17.1763 4.2793 17.1763C5.29199 17.1763 5.74023 16.5039 7.00195 16.5039C8.28027 16.5039 8.5708 17.1597 9.69141 17.1597C10.8037 17.1597 11.5425 16.1387 12.248 15.1343C13.0283 13.9805 13.3604 12.8599 13.3687 12.8018C13.3022 12.7852 11.1772 11.9136 11.1772 9.48145C11.1772 7.37305 12.8457 6.42676 12.9453 6.35205C11.8413 4.7666 10.1562 4.7168 9.69141 4.7168Z" fill="black"/>
</svg>
