<svg width="22" height="44" viewBox="0 0 22 44" fill="none" xmlns="http://www.w3.org/2000/svg">
<path d="M7 22.2051C7 22.4126 7.07471 22.5952 7.23242 22.7529L13.8149 29.186C13.956 29.3354 14.1387 29.4102 14.3545 29.4102C14.7861 29.4102 15.1182 29.0864 15.1182 28.6548C15.1182 28.439 15.0269 28.2563 14.894 28.1152L8.85107 22.2051L14.894 16.2949C15.0269 16.1538 15.1182 15.9629 15.1182 15.7554C15.1182 15.3237 14.7861 15 14.3545 15C14.1387 15 13.956 15.0747 13.8149 15.2158L7.23242 21.6572C7.07471 21.8066 7 21.9976 7 22.2051Z" fill="black" fill-opacity="0.85"/>
</svg>
