<svg width="17" height="18" viewBox="0 0 17 18" fill="none" xmlns="http://www.w3.org/2000/svg">
<path d="M8.4668 17.3418C13.0986 17.3418 16.9336 13.4985 16.9336 8.875C16.9336 4.24316 13.0903 0.408203 8.4585 0.408203C3.83496 0.408203 0 4.24316 0 8.875C0 13.4985 3.84326 17.3418 8.4668 17.3418ZM8.4668 15.9307C4.54883 15.9307 1.41943 12.793 1.41943 8.875C1.41943 4.95703 4.54053 1.81933 8.4585 1.81933C12.3765 1.81933 15.5225 4.95703 15.5225 8.875C15.5225 12.793 12.3848 15.9307 8.4668 15.9307Z" fill="#AEAEB2"/>
<path d="M4.66504 13.0835H12.252C12.584 13.0835 12.7417 12.8594 12.7417 12.5605C12.7417 11.6475 11.3721 9.29004 8.4585 9.29004C5.54492 9.29004 4.17529 11.6475 4.17529 12.5605C4.17529 12.8594 4.33301 13.0835 4.66504 13.0835ZM8.4585 8.61767C9.63721 8.62597 10.5918 7.61328 10.5918 6.28515C10.5918 5.04004 9.63721 4.01074 8.4585 4.01074C7.27979 4.01074 6.3252 5.04004 6.3252 6.28515C6.3252 7.61328 7.27979 8.60937 8.4585 8.61767Z" fill="#AEAEB2"/>
</svg>
