<svg width="20" height="21" viewBox="0 0 20 21" fill="none" xmlns="http://www.w3.org/2000/svg">
<path fill-rule="evenodd" clip-rule="evenodd" d="M19.6 10.6353C19.6 9.92621 19.5364 9.24439 19.4182 8.58984H10V12.458H15.3818C15.15 13.708 14.4455 14.7671 13.3864 15.4762V17.9853H16.6182C18.5091 16.2444 19.6 13.6808 19.6 10.6353Z" fill="#4285F4"/>
<path fill-rule="evenodd" clip-rule="evenodd" d="M9.99996 20.4081C12.7 20.4081 14.9636 19.5127 16.6181 17.9854L13.3863 15.4763C12.4909 16.0763 11.3454 16.4308 9.99996 16.4308C7.39542 16.4308 5.19087 14.6717 4.40451 12.3081H1.0636V14.899C2.70905 18.1672 6.09087 20.4081 9.99996 20.4081Z" fill="#34A853"/>
<path fill-rule="evenodd" clip-rule="evenodd" d="M4.40455 12.3079C4.20455 11.7079 4.09091 11.067 4.09091 10.4079C4.09091 9.74881 4.20455 9.1079 4.40455 8.5079V5.91699H1.06364C0.386364 7.26699 0 8.79427 0 10.4079C0 12.0215 0.386364 13.5488 1.06364 14.8988L4.40455 12.3079Z" fill="#FBBC05"/>
<path fill-rule="evenodd" clip-rule="evenodd" d="M9.99996 4.38548C11.4681 4.38548 12.7863 4.89002 13.8227 5.88093L16.6909 3.01275C14.9591 1.39911 12.6954 0.408203 9.99996 0.408203C6.09087 0.408203 2.70905 2.64911 1.0636 5.91729L4.40451 8.5082C5.19087 6.14457 7.39542 4.38548 9.99996 4.38548Z" fill="#EA4335"/>
</svg>
