<svg width="110" height="33" viewBox="0 0 110 33" fill="none" xmlns="http://www.w3.org/2000/svg">
<path d="M8.91136 7.61377C9.43967 7.61377 10.0076 7.61934 10.615 7.63044C11.2225 7.64153 11.8245 7.67594 12.4208 7.73365C12.9806 7.78561 13.5366 7.87196 14.0857 7.99225C14.5533 8.08739 15.0012 8.26197 15.4098 8.5084C16.2344 9.01128 16.9345 9.69432 17.4576 10.5063C18.0192 11.3551 18.3 12.3988 18.3 13.6375C18.3 14.945 17.9848 16.0746 17.3543 17.0262C16.7239 17.9778 15.8238 18.6834 14.654 19.1429V19.2117C16.1664 19.5321 17.3244 20.2203 18.1279 21.2762C18.9315 22.3321 19.3333 23.6167 19.3333 25.13C19.3334 26.0238 19.1698 26.9101 18.8505 27.745C18.5341 28.586 18.0483 29.3529 17.4232 29.9982C16.7566 30.6765 15.9611 31.2146 15.0835 31.581C14.1541 31.9828 13.0812 32.1837 11.8648 32.1837H0V7.61377H8.91136ZM9.80704 18.1772C11.6643 18.1772 13.0002 17.8501 13.8149 17.196C14.6295 16.5419 15.0365 15.5614 15.0358 14.2546C15.0358 13.383 14.8978 12.6948 14.6218 12.1901C14.3622 11.7005 13.9688 11.2947 13.4875 11.0202C12.9729 10.7347 12.4072 10.5533 11.8226 10.4863C11.155 10.4042 10.483 10.3642 9.81037 10.3665H3.27198V18.1772H9.80704ZM11.4586 29.4288C12.9022 29.4288 14.0317 29.0388 14.8471 28.2589C15.6625 27.479 16.0694 26.4009 16.068 25.0245C16.068 24.2209 15.92 23.5549 15.624 23.0266C15.3411 22.5142 14.9329 22.0819 14.4375 21.7701C13.9147 21.4493 13.3371 21.2277 12.7338 21.1164C12.0756 20.9891 11.4065 20.9259 10.736 20.9277H3.26865V29.4266L11.4586 29.4288Z" fill="#FD8A65"/>
<path d="M36.9573 32.1126C36.4534 32.4085 35.7538 32.5565 34.8585 32.5565C34.1015 32.5565 33.4996 32.3442 33.0527 31.9194C32.6058 31.4947 32.3819 30.8028 32.3812 29.8438C31.6377 30.7635 30.6731 31.4795 29.5776 31.925C28.4759 32.3559 27.302 32.5721 26.1192 32.5621C25.3481 32.5654 24.5797 32.4725 23.8317 32.2857C23.1565 32.1235 22.5194 31.8313 21.9559 31.4255C21.4195 31.0242 20.9887 30.4985 20.7006 29.8938C20.3914 29.2633 20.2363 28.5008 20.2356 27.6062C20.2356 26.5968 20.4076 25.771 20.7517 25.1287C21.0767 24.5079 21.5423 23.9716 22.1113 23.5626C22.6966 23.1505 23.3483 22.8423 24.0381 22.6513C24.761 22.4449 25.5009 22.2728 26.2579 22.1352C27.0615 21.9746 27.8243 21.854 28.5465 21.7733C29.1907 21.7079 29.829 21.5928 30.4555 21.4293C30.9345 21.3152 31.3803 21.0909 31.7574 20.7744C32.0793 20.488 32.2399 20.0696 32.2391 19.519C32.2391 18.8767 32.1189 18.3606 31.8784 17.9706C31.6534 17.5955 31.3328 17.2868 30.9494 17.076C30.553 16.8638 30.1219 16.724 29.6764 16.6631C29.2148 16.5949 28.7489 16.5604 28.2823 16.5599C27.0437 16.5599 26.0115 16.7948 25.1857 17.2647C24.36 17.7346 23.9127 18.6225 23.8439 19.9286H20.9237C20.9703 18.8275 21.1997 17.8985 21.6119 17.1415C22.0074 16.4055 22.5738 15.7752 23.2634 15.3034C23.9793 14.8217 24.7788 14.4776 25.6208 14.2889C26.5518 14.0771 27.5041 13.9732 28.4588 13.9793C29.2592 13.9787 30.0586 14.0362 30.8506 14.1513C31.6044 14.2543 32.3331 14.4943 33.0005 14.8594C33.6401 15.2107 34.1745 15.726 34.5488 16.3523C34.9395 16.9939 35.1345 17.8293 35.1337 18.8586V27.9924C35.1337 28.6791 35.1741 29.1827 35.2547 29.5031C35.3346 29.8227 35.6043 29.9837 36.0627 29.9837C36.3655 29.9759 36.6661 29.9296 36.9573 29.846V32.1126ZM32.2092 22.9943C31.7771 23.2959 31.2849 23.5003 30.7663 23.5937C30.1699 23.7195 29.545 23.8219 28.8917 23.9011C28.2383 23.9803 27.5787 24.0717 26.9127 24.1753C26.2978 24.2646 25.6967 24.4313 25.1236 24.6714C24.6182 24.883 24.1745 25.219 23.8339 25.6482C23.5009 26.07 23.3344 26.646 23.3344 27.3764C23.3207 27.8005 23.4219 28.2205 23.6274 28.5918C23.8144 28.915 24.0735 29.1908 24.3844 29.3976C24.7151 29.611 25.0823 29.7615 25.4676 29.8416C25.8972 29.9344 26.3356 29.9801 26.7751 29.9781C27.737 29.9781 28.5628 29.8468 29.2524 29.5841C29.8726 29.361 30.4448 29.022 30.9383 28.5851C31.3454 28.2254 31.6728 27.7846 31.8995 27.2909C32.0934 26.8781 32.1989 26.4294 32.2092 25.9734V22.9943Z" fill="#FD8A65"/>
<path d="M40.8343 14.3924V17.2139H40.9031C42.1196 15.0576 44.0464 13.9795 46.6835 13.9795C47.8533 13.9795 48.8285 14.14 49.6092 14.4612C50.3401 14.7473 50.9898 15.208 51.5015 15.8031C51.9933 16.3979 52.3405 17.0984 52.516 17.8499C52.7185 18.7126 52.8165 19.5966 52.8079 20.4827V32.1816H49.8833V20.1386C49.8833 19.0376 49.5626 18.1659 48.921 17.5236C48.2795 16.8813 47.3964 16.5601 46.2717 16.5601C45.3764 16.5601 44.6021 16.6978 43.9487 16.973C43.32 17.2302 42.7601 17.6308 42.3138 18.1429C41.8702 18.6624 41.5368 19.2666 41.3338 19.9189C41.1095 20.6372 40.9993 21.3863 41.0075 22.1388V32.1861H38.0818V14.3924H40.8343Z" fill="#FD8A65"/>
<path d="M67.8835 32.1813V29.7727H67.8146C67.3503 30.7422 66.5403 31.5031 65.5438 31.906C64.4639 32.3508 63.3054 32.5731 62.1375 32.5598C60.7613 32.5598 59.5629 32.3074 58.5426 31.8028C57.5537 31.3235 56.684 30.63 55.9965 29.7727C55.303 28.8923 54.7832 27.8881 54.4648 26.8135C54.1154 25.6531 53.9415 24.4469 53.9487 23.235C53.9415 22.0243 54.1097 20.819 54.4482 19.6566C54.753 18.5852 55.2676 17.585 55.9621 16.7141C56.6509 15.8663 57.5209 15.1836 58.5082 14.7161C59.5278 14.2233 60.7146 13.9769 62.0687 13.9769C62.5649 13.9801 63.0599 14.0262 63.5482 14.1146C64.0912 14.2105 64.622 14.3661 65.1309 14.5785C65.6646 14.8003 66.1678 15.0894 66.6282 15.4387C67.1041 15.8012 67.5068 16.251 67.8146 16.764H67.8835V7.61133H70.808V32.1791L67.8835 32.1813ZM57.3727 25.8667C57.5758 26.6266 57.9142 27.3437 58.3716 27.9834C58.821 28.6049 59.4103 29.1117 60.092 29.463C60.7912 29.8293 61.6111 30.0143 62.5515 30.018C63.5378 30.018 64.3751 29.823 65.0632 29.433C65.7347 29.0578 66.3114 28.5339 66.7491 27.9013C67.1947 27.2492 67.5157 26.5202 67.6959 25.7513C67.8898 24.9518 67.9878 24.1321 67.9878 23.3094C67.9902 22.4566 67.8861 21.6069 67.6781 20.7798C67.4909 20.0075 67.1583 19.2778 66.6981 18.6298C66.2424 18.003 65.6474 17.4904 64.96 17.1325C64.2497 16.7544 63.3895 16.5653 62.3795 16.5653C61.3932 16.5653 60.5559 16.7603 59.8678 17.1503C59.1981 17.5225 58.6308 18.0544 58.2163 18.6987C57.7898 19.3739 57.4869 20.1195 57.3217 20.9008C57.1372 21.7369 57.0449 22.5908 57.0464 23.4471C57.0456 24.2647 57.1553 25.0786 57.3727 25.8667Z" fill="#FD8A65"/>
<path d="M76.1956 7.61377V32.1815H73.2677V7.61377H76.1956Z" fill="#FD8A65"/>
<path fill-rule="evenodd" clip-rule="evenodd" d="M88.6844 14.3042C87.9517 14.0874 87.1295 13.979 86.2179 13.979C85.0631 13.9658 83.919 14.2005 82.8626 14.6672C81.8541 15.1165 80.9515 15.773 80.2133 16.5941C79.451 17.4478 78.8612 18.441 78.4763 19.5188C78.0512 20.711 77.8415 21.9693 77.857 23.2349C77.8889 24.5064 78.0913 25.7678 78.4586 26.9855C78.7812 28.0721 79.3262 29.0798 80.059 29.9446C80.7793 30.7775 81.6791 31.4363 82.6906 31.8715C83.7339 32.3303 84.967 32.5597 86.3899 32.5597C88.4069 32.5597 90.0814 32.055 91.4133 31.0457C92.7429 30.0364 93.6013 28.5342 93.9882 26.5393H91.1025C90.8495 27.7092 90.3274 28.5809 89.5364 29.1543C88.7455 29.7278 87.7306 30.0145 86.492 30.0145C85.5279 30.0138 84.6906 29.8532 83.9803 29.5328C83.3063 29.239 82.7067 28.7979 82.2256 28.242C81.7644 27.7006 81.4238 27.0672 81.2266 26.3839C81.0169 25.6634 80.9236 24.9139 80.9503 24.164H94.269C94.3091 23.0208 94.2107 21.877 93.976 20.7575C93.9719 20.7366 93.9677 20.7158 93.9634 20.6949C91.4327 19.3881 89.5001 17.0849 88.6844 14.3042ZM89.6408 18.0215C90.0961 18.4813 90.4583 19.0248 90.7074 19.622C90.973 20.2448 91.1317 20.9078 91.1769 21.5833H80.9569C80.9972 20.9152 81.1472 20.2581 81.4009 19.6387C81.6431 19.0466 81.9927 18.5043 82.432 18.0392C82.875 17.5752 83.4079 17.2062 83.9981 16.9548C84.6462 16.6836 85.3433 16.5491 86.0458 16.5597C86.7366 16.5514 87.4217 16.6859 88.0581 16.9548C88.6483 17.2071 89.1853 17.5691 89.6408 18.0215Z" fill="#FD8A65"/>
<g clip-path="url(#clip0_1311_2329)">
<path d="M95.7572 8.66852L95.7605 8.65479L95.7603 8.65526L95.7572 8.66852Z" fill="#FD8A65"/>
<path d="M96.0226 19.8467C100.757 21.3394 105.805 18.7116 107.297 13.9775C108.79 9.24328 106.162 4.19542 101.428 2.70274C96.6939 1.21006 91.646 3.83781 90.1533 8.57198C88.6607 13.3062 91.2884 18.354 96.0226 19.8467Z" fill="#FD8A65"/>
<path d="M102.75 10.5865C102.828 10.2515 102.776 9.89953 102.606 9.6008C102.436 9.30207 102.159 9.07863 101.831 8.9751C101.796 8.96418 101.762 8.95342 101.726 8.94635C101.391 8.86855 101.039 8.91998 100.741 9.09039C100.442 9.2608 100.218 9.53764 100.115 9.8656C100.104 9.90022 100.093 9.93484 100.087 9.96986C100.009 10.3049 100.06 10.6569 100.231 10.9557C100.401 11.2545 100.678 11.4779 101.006 11.5813C101.04 11.5921 101.075 11.603 101.11 11.6094C101.445 11.6872 101.797 11.6358 102.096 11.4654C102.395 11.295 102.618 11.0181 102.722 10.6902C102.732 10.656 102.743 10.6219 102.75 10.5865Z" fill="#804938"/>
<path d="M98.5138 7.44061L96.5581 10.3537L96.5456 10.3731C96.4684 10.4986 96.4068 10.6331 96.3623 10.7736C96.2306 11.1929 96.2578 11.6461 96.4387 12.0466C96.6196 12.4472 96.9415 12.7673 97.3431 12.9458L98.3215 13.3806C98.4614 13.4399 98.6191 13.4418 98.7604 13.386C98.9018 13.3302 99.0156 13.2211 99.0773 13.0822C99.139 12.9433 99.1438 12.7858 99.0905 12.6434C99.0372 12.5011 98.9302 12.3854 98.7924 12.3212L97.8141 11.8863C97.7417 11.8543 97.6761 11.8088 97.6206 11.7524C97.5408 11.6709 97.4845 11.5694 97.4576 11.4586C97.4308 11.3477 97.4344 11.2317 97.4681 11.1228C97.4838 11.0728 97.5058 11.0251 97.5335 10.9806L97.0392 10.6772L97.5191 10.9993L99.4734 8.08574C99.5167 8.02252 99.5471 7.95135 99.5627 7.87633C99.5783 7.80131 99.579 7.72392 99.5645 7.64866C99.5501 7.5734 99.5208 7.50175 99.4785 7.43786C99.4362 7.37397 99.3816 7.3191 99.318 7.27643C99.2543 7.23375 99.1828 7.20411 99.1077 7.18924C99.0325 7.17436 98.9551 7.17454 98.88 7.18975C98.8049 7.20497 98.7335 7.23492 98.6701 7.27788C98.6066 7.32084 98.5523 7.37595 98.5103 7.44003L98.5138 7.44061Z" fill="#804938"/>
<path d="M96.3631 8.85916C96.414 8.81257 96.4774 8.78169 96.5455 8.77024C96.6275 8.75572 96.7119 8.76162 96.7911 8.78743C96.8923 8.82007 96.9832 8.87863 97.0548 8.95726C97.1403 9.04811 97.1963 9.16271 97.2155 9.28599C97.2389 9.43614 97.3204 9.57107 97.4424 9.66174C97.5644 9.75241 97.7171 9.79156 97.8676 9.77077C98.0182 9.74999 98.1545 9.67092 98.2474 9.55059C98.3402 9.43027 98.3821 9.27829 98.364 9.12739C98.3161 8.796 98.1761 8.48473 97.9598 8.22912C97.7435 7.97351 97.4597 7.78385 97.1408 7.68179C96.8792 7.5982 96.601 7.58077 96.3311 7.63107C96.0498 7.6828 95.7889 7.81291 95.5783 8.00643C95.5203 8.05742 95.473 8.11952 95.4392 8.18906C95.4055 8.2586 95.386 8.33418 95.3819 8.41137C95.3778 8.48855 95.3892 8.56577 95.4153 8.6385C95.4415 8.71122 95.482 8.77797 95.5343 8.83484C95.5867 8.8917 95.6499 8.93752 95.7202 8.96961C95.7905 9.0017 95.8665 9.0194 95.9438 9.02168C96.021 9.02396 96.098 9.01077 96.1701 8.98288C96.2421 8.955 96.3079 8.91299 96.3635 8.85931L96.3631 8.85916Z" fill="#804938"/>
<path d="M96.0665 14.9391C96.41 15.2173 96.8026 15.4286 97.224 15.562C97.3202 15.5923 97.423 15.62 97.5304 15.6433C97.9344 15.731 98.3508 15.7461 98.7602 15.6879C98.9127 15.6669 99.0636 15.6361 99.2122 15.5957C99.3401 15.5605 99.4462 15.5242 99.5226 15.4948C99.5949 15.4688 99.6613 15.4287 99.7179 15.3767C99.7746 15.3248 99.8204 15.2621 99.8526 15.1924C99.8848 15.1226 99.9028 15.0471 99.9056 14.9703C99.9084 14.8935 99.8959 14.8169 99.8688 14.745C99.8417 14.6731 99.8006 14.6073 99.7479 14.5514C99.6951 14.4955 99.6318 14.4506 99.5616 14.4194C99.4913 14.3882 99.4156 14.3713 99.3388 14.3696C99.2619 14.368 99.1856 14.3816 99.114 14.4097C99.0625 14.4289 98.9944 14.4539 98.9056 14.4772C98.7462 14.5207 98.5828 14.548 98.4179 14.5587C98.2034 14.5725 97.988 14.5564 97.778 14.5108C97.7068 14.4952 97.6386 14.4768 97.5741 14.4565C97.2915 14.3669 97.0281 14.2251 96.7978 14.0383C96.6783 13.9416 96.5252 13.8962 96.3723 13.9123C96.2193 13.9284 96.079 14.0045 95.9823 14.1241C95.8855 14.2436 95.8402 14.3966 95.8562 14.5495C95.8723 14.7025 95.9485 14.8428 96.068 14.9396L96.0665 14.9391Z" fill="#804938"/>
</g>
<defs>
<clipPath id="clip0_1311_2329">
<rect width="17.9759" height="17.9759" fill="white" transform="translate(92.8561) rotate(17.5)"/>
</clipPath>
</defs>
</svg>
