<svg width="215" height="55" viewBox="0 0 215 55" fill="none" xmlns="http://www.w3.org/2000/svg">
<path d="M19.4982 0.00488281C20.6513 0.00488281 21.8908 0.0169619 23.2167 0.0411675C24.5426 0.065373 25.8564 0.140453 27.1581 0.266321C28.3797 0.380813 29.5931 0.569114 30.7919 0.83027C31.8125 1.03773 32.79 1.41846 33.6819 1.95586C35.4818 3.05252 37.0098 4.54208 38.1514 6.31286C39.3772 8.16539 39.9901 10.4415 39.9901 13.1412C39.9901 15.9926 39.3021 18.456 37.9262 20.5312C36.5502 22.6064 34.5855 24.145 32.0322 25.1471V25.2972C35.3333 25.9976 37.8607 27.4983 39.6146 29.7994C41.3685 32.1006 42.2455 34.902 42.2455 38.2036C42.2457 40.1529 41.8886 42.0857 41.1917 43.9064C40.5016 45.7405 39.4412 47.4131 38.0764 48.8201C36.6214 50.2993 34.8852 51.4729 32.9697 52.2719C30.9413 53.1481 28.5995 53.5862 25.9444 53.5862H0.0478516V0.00488281H19.4982ZM21.4531 23.0413C25.5068 23.0413 28.4227 22.328 30.2008 20.9015C31.9789 19.475 32.8672 17.3369 32.8655 14.4871C32.8655 12.5877 32.5643 11.087 31.9619 9.98481C31.3954 8.91916 30.5377 8.03612 29.4886 7.43839C28.3655 6.81576 27.1308 6.42013 25.8548 6.27409C24.3977 6.09503 22.9308 6.00776 21.4628 6.01271H7.19182V23.0461L21.4531 23.0413ZM25.0578 47.5784C28.2087 47.5784 30.674 46.728 32.4537 45.0272C34.2334 43.3263 35.1217 40.9751 35.1185 37.9736C35.1185 36.2244 34.7955 34.772 34.1495 33.6166C33.5313 32.4997 32.6404 31.5572 31.5598 30.8766C30.4186 30.1769 29.158 29.6935 27.8413 29.4509C26.4045 29.1733 24.9441 29.0355 23.4808 29.0394H7.18213V47.5736L25.0578 47.5784Z" fill="#FD8A65"/>
<path d="M80.7124 53.4287C79.6126 54.0742 78.0856 54.397 76.1315 54.397C74.4793 54.397 73.1655 53.9338 72.1901 53.0076C71.2146 52.0813 70.7261 50.5685 70.7244 48.469C69.1028 50.4781 66.9973 52.0431 64.6052 53.0173C62.2 53.9536 59.6379 54.4219 57.0567 54.397C55.3739 54.4049 53.6967 54.2032 52.0639 53.7967C50.5899 53.4439 49.1991 52.8067 47.9698 51.9207C46.7995 51.0483 45.8591 49.9043 45.23 48.5876C44.5549 47.2128 44.2166 45.5498 44.215 43.5988C44.215 41.3978 44.5905 39.5969 45.3414 38.1962C46.0521 36.8458 47.0682 35.6797 48.309 34.7905C49.5864 33.8919 51.0089 33.2197 52.5145 32.8032C54.0923 32.353 55.7073 31.9778 57.3595 31.6776C59.1134 31.3258 60.7784 31.0628 62.3547 30.8885C63.7608 30.7458 65.1539 30.4949 66.5214 30.1382C67.5673 29.8879 68.5403 29.3973 69.363 28.7052C70.0655 28.0807 70.416 27.1682 70.4144 25.9676C70.4144 24.5669 70.1519 23.4373 69.6271 22.5788C69.1351 21.7612 68.4356 21.0882 67.5994 20.6278C66.7341 20.165 65.7932 19.8601 64.8208 19.7274C63.8134 19.5787 62.7965 19.5035 61.7781 19.5023C59.0746 19.5023 56.8217 20.0146 55.0193 21.0393C53.217 22.064 52.2407 24.0005 52.0905 26.8486H45.7169C45.8187 24.4474 46.3193 22.4215 47.2189 20.7707C48.0813 19.163 49.3175 17.7858 50.8236 16.7549C52.3862 15.7044 54.1311 14.9541 55.969 14.5426C58.001 14.0807 60.0794 13.8541 62.1633 13.8672C63.9102 13.8672 65.6549 13.9926 67.3838 14.2424C69.0285 14.4641 70.6187 14.9841 72.0762 15.777C73.4744 16.5507 74.641 17.6829 75.4556 19.0569C76.3083 20.456 76.7339 22.2779 76.7323 24.5225V44.4412C76.7323 45.9404 76.8203 47.0385 76.9963 47.7356C77.1707 48.4327 77.7594 48.7837 78.7599 48.7837C79.421 48.7679 80.0772 48.667 80.7124 48.4836V53.4287ZM70.349 33.5439C69.4059 34.2015 68.3315 34.6474 67.1997 34.851C65.8964 35.1334 64.5309 35.3553 63.1032 35.5166C61.6756 35.678 60.2358 35.8773 58.7839 36.1145C57.4409 36.3129 56.1287 36.6814 54.8788 37.211C53.7755 37.6708 52.8069 38.4029 52.0639 39.3387C51.3371 40.2585 50.9738 41.5148 50.9738 43.1075C50.942 44.0365 51.163 44.9567 51.6133 45.7701C52.0216 46.4743 52.5869 47.0749 53.2654 47.525C53.9873 47.9903 54.7888 48.3185 55.6298 48.4933C56.5674 48.6955 57.5243 48.7954 58.4835 48.791C60.583 48.791 62.3854 48.5045 63.8906 47.9317C65.2428 47.4487 66.4913 46.7144 67.5703 45.7677C68.4618 44.9782 69.178 44.011 69.6731 42.9284C70.0963 42.0282 70.3265 41.0495 70.349 40.0552V33.5439Z" fill="#FD8A65"/>
<path d="M89.175 14.7872V20.9402H89.3252C91.9803 16.2363 96.1858 13.8851 101.942 13.8867C104.495 13.8867 106.624 14.2369 108.327 14.9373C109.923 15.5611 111.341 16.5659 112.458 17.8637C113.53 19.161 114.288 20.6887 114.672 22.3272C115.114 24.2086 115.328 26.1363 115.309 28.0688V53.5813H108.926V27.3184C108.926 24.9172 108.226 23.0163 106.825 21.6156C105.425 20.2149 103.498 19.5145 101.043 19.5145C99.0888 19.5145 97.3986 19.8147 95.9726 20.415C94.6003 20.9757 93.3783 21.8494 92.4043 22.9662C91.4365 24.0994 90.7089 25.4169 90.2652 26.8391C89.7757 28.4056 89.5354 30.0392 89.553 31.6802V53.591H83.1672V14.7872H89.175Z" fill="#FD8A65"/>
<path d="M148.213 53.5813V48.3287H148.063C147.05 50.4435 145.282 52.1031 143.106 52.981C140.749 53.951 138.221 54.4359 135.672 54.4068C132.668 54.4068 130.052 53.8565 127.825 52.7559C125.666 51.7114 123.768 50.199 122.268 48.3287C120.754 46.4089 119.62 44.2189 118.925 41.8756C118.162 39.3449 117.783 36.7145 117.799 34.0717C117.783 31.4315 118.15 28.8029 118.889 26.2678C119.554 23.9314 120.677 21.7502 122.193 19.851C123.697 18.0022 125.595 16.5134 127.75 15.494C129.976 14.4192 132.566 13.8819 135.522 13.8819C136.605 13.8888 137.685 13.9893 138.751 14.182C139.936 14.3923 141.094 14.7316 142.205 15.1938C143.37 15.6775 144.468 16.3079 145.473 17.0697C146.512 17.8609 147.39 18.8416 148.063 19.9599H148.213V0H154.596V53.5765L148.213 53.5813ZM125.272 39.8108C125.715 41.4679 126.454 43.0316 127.452 44.4268C128.433 45.782 129.719 46.8873 131.207 47.6534C132.733 48.4602 134.523 48.8637 136.575 48.8637C138.728 48.8637 140.556 48.4385 142.058 47.5881C143.524 46.7706 144.783 45.6278 145.737 44.2477C146.71 42.8256 147.41 41.236 147.804 39.5591C148.666 35.9941 148.652 32.2737 147.765 28.715C147.356 27.0306 146.63 25.4395 145.626 24.0264C144.632 22.6556 143.332 21.5344 141.83 20.7514C140.279 19.9268 138.402 19.5145 136.198 19.5145C134.045 19.5145 132.217 19.9397 130.715 20.7901C129.252 21.6052 128.014 22.7694 127.111 24.1789C126.18 25.6513 125.519 27.2774 125.158 28.9813C124.756 30.8047 124.554 32.6667 124.557 34.534C124.556 36.3171 124.797 38.0921 125.272 39.8108Z" fill="#FD8A65"/>
<path d="M166.355 0.00488281V53.5813H159.965V0.00488281H166.355Z" fill="#FD8A65"/>
<path d="M204.241 25.418C201.445 25.324 198.795 24.1497 196.848 22.1424C194.902 20.135 193.811 17.4513 193.805 14.6563C191.997 14.1205 190.118 13.8609 188.233 13.8865C185.713 13.8589 183.216 14.3707 180.91 15.3873C178.709 16.3671 176.738 17.7988 175.127 19.5893C173.463 21.4511 172.176 23.617 171.336 25.9675C170.408 28.5675 169.951 31.3115 169.984 34.0715C170.054 36.8443 170.495 39.5952 171.297 42.2506C172.002 44.6203 173.191 46.8178 174.791 48.7037C176.362 50.5208 178.326 51.9577 180.534 52.9058C182.811 53.9047 185.503 54.4049 188.608 54.4066C193.013 54.4066 196.667 53.306 199.573 51.1049C202.478 48.9038 204.356 45.6272 205.205 41.2751H198.907C198.354 43.8263 197.215 45.7273 195.488 46.9779C193.762 48.2285 191.547 48.8538 188.843 48.8538C186.744 48.8538 184.917 48.5036 183.361 47.8033C181.89 47.1634 180.581 46.2013 179.531 44.9882C178.525 43.8076 177.781 42.4263 177.351 40.9362C176.893 39.3649 176.69 37.7306 176.748 36.095H205.818C205.905 33.6021 205.691 31.1078 205.178 28.6664C204.949 27.5614 204.635 26.4755 204.241 25.418ZM176.738 30.4697C176.826 29.0125 177.153 27.5798 177.707 26.2289C178.236 24.9376 178.999 23.7551 179.958 22.7409C180.925 21.7297 182.088 20.9252 183.376 20.376C184.791 19.7845 186.312 19.4912 187.845 19.5143C189.353 19.4962 190.848 19.7896 192.237 20.376C193.526 20.9263 194.698 21.7156 195.692 22.7022C196.686 23.7049 197.476 24.8901 198.02 26.1926C198.596 27.5512 198.939 28.9971 199.035 30.4697H176.738Z" fill="#FD8A65"/>
<g clip-path="url(#clip0_1311_2570)">
<path d="M201.892 12.2209L201.895 12.208L201.895 12.2085L201.892 12.2209Z" fill="#FD8A65"/>
<path d="M202.135 22.4525C206.476 23.8188 211.105 21.4135 212.474 17.0802C213.843 12.7468 211.433 8.12634 207.092 6.76004C202.75 5.39374 198.122 7.79901 196.753 12.1324C195.384 16.4657 197.794 21.0862 202.135 22.4525Z" fill="#FD8A65"/>
<path d="M208.304 13.9763C208.375 13.6697 208.328 13.3474 208.172 13.074C208.016 12.8006 207.762 12.596 207.461 12.5013C207.429 12.4913 207.398 12.4814 207.365 12.475C207.058 12.4038 206.735 12.4508 206.461 12.6068C206.187 12.7628 205.982 13.0162 205.887 13.3164C205.877 13.3481 205.867 13.3798 205.862 13.4118C205.79 13.7185 205.837 14.0407 205.994 14.3142C206.15 14.5877 206.404 14.7922 206.705 14.8868C206.736 14.8967 206.768 14.9067 206.8 14.9126C207.107 14.9838 207.43 14.9367 207.704 14.7807C207.978 14.6247 208.183 14.3714 208.278 14.0712C208.288 14.0399 208.298 14.0087 208.304 13.9763Z" fill="#804938"/>
<path d="M204.419 11.0966L202.626 13.7631L202.615 13.7808C202.544 13.8957 202.487 14.0188 202.446 14.1474C202.326 14.5313 202.351 14.946 202.517 15.3127C202.682 15.6793 202.978 15.9723 203.346 16.1357L204.243 16.5337C204.371 16.5879 204.516 16.5897 204.646 16.5386C204.775 16.4875 204.88 16.3877 204.936 16.2606C204.993 16.1334 204.997 15.9892 204.948 15.8589C204.899 15.7287 204.801 15.6227 204.675 15.564L203.778 15.166C203.711 15.1366 203.651 15.095 203.6 15.0433C203.527 14.9688 203.475 14.8758 203.451 14.7744C203.426 14.673 203.43 14.5668 203.46 14.467C203.475 14.4213 203.495 14.3776 203.52 14.3369L203.067 14.0592L203.507 14.354L205.299 11.6871C205.339 11.6293 205.367 11.5641 205.381 11.4954C205.396 11.4268 205.396 11.3559 205.383 11.2871C205.37 11.2182 205.343 11.1526 205.304 11.0941C205.265 11.0356 205.215 10.9854 205.157 10.9463C205.098 10.9073 205.033 10.8801 204.964 10.8665C204.895 10.8529 204.824 10.8531 204.755 10.867C204.686 10.8809 204.621 10.9083 204.563 10.9477C204.505 10.987 204.455 11.0374 204.416 11.0961L204.419 11.0966Z" fill="#804938"/>
<path d="M202.447 12.3952C202.494 12.3526 202.552 12.3243 202.614 12.3138C202.69 12.3005 202.767 12.3059 202.84 12.3296C202.933 12.3594 203.016 12.413 203.082 12.485C203.16 12.5682 203.211 12.6731 203.229 12.7859C203.25 12.9234 203.325 13.0469 203.437 13.1299C203.549 13.2128 203.689 13.2487 203.827 13.2297C203.965 13.2106 204.09 13.1383 204.175 13.0281C204.26 12.918 204.299 12.7789 204.282 12.6407C204.238 12.3374 204.11 12.0525 203.911 11.8185C203.713 11.5846 203.453 11.411 203.16 11.3175C202.921 11.241 202.665 11.2251 202.418 11.2711C202.16 11.3185 201.921 11.4376 201.728 11.6147C201.674 11.6614 201.631 11.7182 201.6 11.7819C201.569 11.8455 201.551 11.9147 201.547 11.9853C201.544 12.056 201.554 12.1267 201.578 12.1932C201.602 12.2598 201.639 12.3209 201.687 12.373C201.735 12.425 201.793 12.467 201.858 12.4963C201.922 12.5257 201.992 12.5419 202.063 12.544C202.134 12.5461 202.204 12.534 202.27 12.5085C202.336 12.4829 202.397 12.4445 202.448 12.3954L202.447 12.3952Z" fill="#804938"/>
<path d="M202.175 17.9604C202.49 18.215 202.85 18.4084 203.237 18.5305C203.325 18.5583 203.419 18.5836 203.518 18.6049C203.888 18.6852 204.27 18.699 204.645 18.6458C204.785 18.6266 204.924 18.5984 205.06 18.5614C205.177 18.5291 205.274 18.4959 205.344 18.4691C205.411 18.4452 205.472 18.4085 205.524 18.361C205.576 18.3134 205.618 18.2561 205.647 18.1922C205.677 18.1283 205.693 18.0592 205.696 17.9889C205.698 17.9187 205.687 17.8486 205.662 17.7827C205.637 17.7169 205.599 17.6566 205.551 17.6055C205.503 17.5543 205.445 17.5133 205.38 17.4847C205.316 17.4561 205.246 17.4407 205.176 17.4391C205.105 17.4376 205.035 17.4501 204.97 17.4758C204.923 17.4934 204.86 17.5163 204.779 17.5376C204.633 17.5774 204.483 17.6024 204.331 17.6122C204.135 17.6248 203.937 17.61 203.745 17.5683C203.679 17.554 203.617 17.5372 203.558 17.5187C203.299 17.4366 203.057 17.3068 202.846 17.1359C202.736 17.0473 202.596 17.0058 202.456 17.0205C202.315 17.0352 202.187 17.1049 202.098 17.2143C202.009 17.3237 201.968 17.4638 201.982 17.6038C201.997 17.7438 202.067 17.8722 202.177 17.9608L202.175 17.9604Z" fill="#804938"/>
</g>
<defs>
<clipPath id="clip0_1311_2570">
<rect width="16.4813" height="16.4567" fill="white" transform="matrix(0.953874 0.300207 -0.301205 0.953559 199.231 4.28613)"/>
</clipPath>
</defs>
</svg>
