<svg width="17" height="18" viewBox="0 0 17 18" fill="none" xmlns="http://www.w3.org/2000/svg">
<path d="M8.4668 17.3418C13.0986 17.3418 16.9336 13.4985 16.9336 8.875C16.9336 4.24316 13.0903 0.408203 8.4585 0.408203C3.83496 0.408203 0 4.24316 0 8.875C0 13.4985 3.84326 17.3418 8.4668 17.3418ZM8.4668 15.9307C4.54883 15.9307 1.41943 12.793 1.41943 8.875C1.41943 4.95703 4.54053 1.81933 8.4585 1.81933C12.3765 1.81933 15.5225 4.95703 15.5225 8.875C15.5225 12.793 12.3848 15.9307 8.4668 15.9307Z" fill="#8E8E93"/>
<path d="M5.46191 12.1455C5.46191 12.7681 5.73584 13.0586 6.30859 13.0586H10.6084C11.1812 13.0586 11.4551 12.7681 11.4551 12.1455V8.84179C11.4551 8.26074 11.2144 7.97851 10.7246 7.94531V6.95752C10.7246 5.43017 9.81152 4.40918 8.4585 4.40918C7.10547 4.40918 6.19238 5.43017 6.19238 6.95752V7.94531C5.70264 7.97851 5.46191 8.26074 5.46191 8.84179V12.1455ZM7.05566 7.93701V6.86621C7.05566 5.89502 7.62012 5.24756 8.4585 5.24756C9.29688 5.24756 9.86133 5.89502 9.86133 6.86621V7.93701H7.05566Z" fill="#AEAEB2"/>
</svg>
