<svg width="41" height="40" viewBox="0 0 41 40" fill="none" xmlns="http://www.w3.org/2000/svg">
<circle cx="20.5" cy="20" r="18.5" stroke="#65C366" stroke-width="3"/>
<path d="M20.5 28C19.4976 28 18.685 27.1874 18.685 26.185V13.815C18.685 12.8126 19.4976 12 20.5 12C21.5024 12 22.315 12.8126 22.315 13.815V26.185C22.315 27.1874 21.5024 28 20.5 28ZM14.315 21.815C13.3126 21.815 12.5 21.0024 12.5 20C12.5 18.9976 13.3126 18.185 14.315 18.185H26.685C27.6874 18.185 28.5 18.9976 28.5 20C28.5 21.0024 27.6874 21.815 26.685 21.815H14.315Z" fill="#65C366"/>
</svg>
