<svg width="22" height="20" viewBox="0 0 22 20" fill="none" xmlns="http://www.w3.org/2000/svg">
<path d="M4.88552 16.0464H16.1418C17.5082 16.0464 18.1848 15.3762 18.1848 14.0358V6.08489C18.1848 4.74455 17.5082 4.06787 16.1418 4.06787H4.88552C3.52565 4.06787 2.84247 4.74455 2.84247 6.08489V14.0358C2.84247 15.3762 3.52565 16.0464 4.88552 16.0464Z" fill="#FFB299"/>
<path d="M7.3385 10.0671C7.3385 9.72876 7.57924 9.49453 7.91758 9.49453H9.9541V7.45799C9.9541 7.11965 10.1818 6.87891 10.5072 6.87891C10.852 6.87891 11.0862 7.11965 11.0862 7.45799V9.49453H13.1228C13.4611 9.49453 13.6954 9.72876 13.6954 10.0671C13.6954 10.3989 13.4611 10.6202 13.1228 10.6202H11.0862V12.6632C11.0862 13.0015 10.852 13.2358 10.5072 13.2358C10.1818 13.2358 9.9541 12.995 9.9541 12.6632V10.6202H7.91758C7.57924 10.6202 7.3385 10.3989 7.3385 10.0671Z" fill="#EE8968"/>
</svg>
