<svg width="26" height="20" viewBox="0 0 26 20" fill="none" xmlns="http://www.w3.org/2000/svg">
<g clip-path="url(#clip0_1432_710)">
<path d="M4.04175 19.8882H22.6257C24.8816 19.8882 25.9988 18.7817 25.9988 16.5688V3.4419C25.9988 1.22901 24.8816 0.111816 22.6257 0.111816H4.04175C1.79663 0.111816 0.668701 1.22901 0.668701 3.4419V16.5688C0.668701 18.7817 1.79663 19.8882 4.04175 19.8882ZM4.06323 18.1587C2.98901 18.1587 2.39819 17.5893 2.39819 16.4722V3.53858C2.39819 2.42139 2.98901 1.84131 4.06323 1.84131H22.6042C23.6677 1.84131 24.2693 2.42139 24.2693 3.53858V16.4722C24.2693 17.5893 23.6677 18.1587 22.6042 18.1587H4.06323Z" fill="#FD8A65"/>
<path d="M8.36011 9.99462C8.36011 10.521 8.73608 10.8755 9.28393 10.8755H12.4421V14.0444C12.4421 14.5815 12.8074 14.9575 13.323 14.9575C13.8708 14.9575 14.2468 14.5923 14.2468 14.0444V10.8755H17.4158C17.9529 10.8755 18.3181 10.521 18.3181 9.99462C18.3181 9.45751 17.9529 9.08154 17.4158 9.08154H14.2468V5.92333C14.2468 5.37548 13.8708 4.99951 13.323 4.99951C12.8074 4.99951 12.4421 5.37548 12.4421 5.92333V9.08154H9.28393C8.73608 9.08154 8.36011 9.45751 8.36011 9.99462Z" fill="black" fill-opacity="0.85"/>
</g>
<defs>
<clipPath id="clip0_1432_710">
<rect width="25.3301" height="19.7764" fill="white" transform="translate(0.668701 0.111816)"/>
</clipPath>
</defs>
</svg>
