<svg width="43" height="36" viewBox="0 0 43 36" fill="none" xmlns="http://www.w3.org/2000/svg">
<path d="M15.1387 29.042C15.665 29.042 15.9766 28.7412 16.9434 27.8066L21.1435 23.6709C21.1973 23.6172 21.2939 23.6172 21.3369 23.6709L25.5371 27.8066C26.5039 28.7412 26.8154 29.042 27.3418 29.042C28.0615 29.042 28.4805 28.5693 28.4805 27.7314V9.08301C28.4805 7.04199 27.46 6 25.4404 6H17.04C15.0205 6 14 7.04199 14 9.08301V27.7314C14 28.5693 14.4189 29.042 15.1387 29.042ZM16.0195 26.1416C15.8691 26.292 15.6973 26.249 15.6973 26.0342V9.10449C15.6973 8.18066 16.1807 7.69727 17.126 7.69727H25.3652C26.2998 7.69727 26.7832 8.18066 26.7832 9.10449V26.0342C26.7832 26.249 26.6221 26.292 26.4609 26.1416L21.8096 21.6299C21.4658 21.2969 21.0146 21.2969 20.6709 21.6299L16.0195 26.1416Z" fill="black" fill-opacity="0.85"/>
</svg>
