<svg width="43" height="30" viewBox="0 0 43 30" fill="none" xmlns="http://www.w3.org/2000/svg">
<g clip-path="url(#clip0_180_1562)">
<path d="M15.1387 21.582C15.665 21.582 15.9766 21.2812 16.9434 20.3466L21.1435 16.2109C21.1973 16.1572 21.2939 16.1572 21.3369 16.2109L25.5371 20.3466C26.5039 21.2812 26.8154 21.582 27.3418 21.582C28.0615 21.582 28.4805 21.1093 28.4805 20.2714V1.62305C28.4805 -0.417971 27.46 -1.45996 25.4404 -1.45996H17.04C15.0205 -1.45996 14 -0.417971 14 1.62305V20.2714C14 21.1093 14.4189 21.582 15.1387 21.582Z" fill="#FD8A65"/>
</g>
<rect x="11" y="25.4602" width="20" height="4" rx="2" fill="#FD8A65"/>
<defs>
<clipPath id="clip0_180_1562">
<rect width="42.1846" height="19.6689" fill="white" transform="translate(0 0.540039)"/>
</clipPath>
</defs>
</svg>
