<svg width="46" height="41" viewBox="0 0 46 41" fill="none" xmlns="http://www.w3.org/2000/svg">
<g clip-path="url(#clip0_1424_2794)">
<path d="M16.1826 25.6939H17.7509C18.4277 25.6939 18.9541 25.2857 19.1045 24.6411L19.4052 23.2769C19.4375 23.2661 19.4804 23.2447 19.5127 23.2339L20.7265 23.9644C21.2744 24.2867 21.9511 24.2222 22.413 23.7603L23.5088 22.6538C23.9922 22.1704 24.0566 21.5044 23.7129 20.9566L22.9716 19.7857C22.9824 19.7427 23.0039 19.7105 23.0146 19.6675L24.3574 19.3452C24.9912 19.1949 25.4101 18.6577 25.4101 17.981V16.52C25.4101 15.854 25.0019 15.3169 24.3574 15.1558L23.0146 14.8335C23.0039 14.7905 22.9824 14.7583 22.9716 14.7153L23.7129 13.5444C24.0566 12.9966 23.9922 12.3413 23.5088 11.8472L22.413 10.7515C21.9511 10.2896 21.2744 10.2144 20.7265 10.5474L19.5127 11.2671C19.4697 11.2564 19.4375 11.2456 19.3945 11.2349L19.1045 9.85986C18.9648 9.22607 18.4277 8.81787 17.7509 8.81787H16.1826C15.5058 8.81787 14.9795 9.22607 14.8291 9.85986L14.5283 11.2349C14.4853 11.2456 14.4531 11.2564 14.4101 11.2671L13.207 10.5474C12.6591 10.2144 11.9824 10.2896 11.5205 10.7515L10.4248 11.8472C9.94138 12.3413 9.88767 13.0073 10.2207 13.5444L10.9619 14.7153C10.9511 14.7583 10.9297 14.7905 10.9189 14.8335L9.5654 15.1558C8.93161 15.3169 8.52341 15.854 8.52341 16.52V17.981C8.52341 18.6577 8.93161 19.1949 9.5654 19.3452L10.9189 19.6675C10.9297 19.7105 10.9511 19.7427 10.9619 19.7857L10.2207 20.9566C9.87693 21.5044 9.94138 22.1704 10.4248 22.6538L11.5205 23.7603C11.9824 24.2222 12.6484 24.2867 13.1963 23.9644L14.4209 23.2339C14.4531 23.2447 14.4961 23.2661 14.5283 23.2769L14.8291 24.6411C14.9795 25.2857 15.5058 25.6939 16.1826 25.6939ZM16.3867 24.19C16.2793 24.19 16.2256 24.1363 16.1933 24.0288L15.7314 22.106C15.2158 21.9878 14.7431 21.7515 14.3672 21.5474L12.6914 22.5679C12.584 22.6324 12.5088 22.6216 12.4336 22.5464L11.6172 21.7408C11.542 21.6656 11.5312 21.6011 11.5957 21.4937L12.6054 19.8286C12.4765 19.5064 12.1972 19.023 12.0683 18.4644L10.1777 18.0132C10.0703 17.9917 10.0166 17.9273 10.0166 17.8198V16.6812C10.0166 16.5737 10.0703 16.52 10.1777 16.4985L12.0683 16.0474C12.1972 15.478 12.4765 15.0054 12.6054 14.6724L11.5957 13.0073C11.5312 12.9106 11.542 12.8462 11.6172 12.7603L12.4336 11.9653C12.5088 11.8901 12.584 11.8794 12.6914 11.9331L14.3672 12.9536C14.7431 12.7495 15.2158 12.5132 15.7314 12.395L16.1933 10.4829C16.2256 10.3755 16.2793 10.3218 16.3867 10.3218H17.5468C17.6543 10.3218 17.708 10.3755 17.7402 10.4829L18.2021 12.395C18.7177 12.5132 19.1904 12.7495 19.5664 12.9536L21.2422 11.9331C21.3388 11.8794 21.4248 11.8901 21.5 11.9653L22.3164 12.7603C22.3916 12.8462 22.4023 12.9106 22.3379 13.0073L21.3281 14.6724C21.457 15.0054 21.7363 15.478 21.8652 16.0474L23.7558 16.4985C23.8632 16.52 23.917 16.5737 23.917 16.6812V17.8198C23.917 17.9273 23.8632 17.9917 23.7558 18.0132L21.8652 18.4644C21.7363 19.023 21.457 19.5064 21.3281 19.8286L22.3379 21.4937C22.4023 21.6011 22.3916 21.6656 22.3164 21.7408L21.5 22.5464C21.4248 22.6216 21.3388 22.6324 21.2422 22.5679L19.5664 21.5474C19.1904 21.7515 18.7177 21.9878 18.2021 22.106L17.7402 24.0288C17.708 24.1363 17.6543 24.19 17.5468 24.19H16.3867ZM16.9668 20.5161C18.7392 20.5161 20.2002 19.0445 20.2002 17.2505C20.2002 15.478 18.7392 14.0171 16.9668 14.0171C15.1621 14.0171 13.7119 15.478 13.7119 17.2505C13.7119 19.0337 15.1621 20.5161 16.9668 20.5161ZM16.9668 18.9263C16.0537 18.9263 15.291 18.1851 15.291 17.2505C15.291 16.3481 16.0537 15.5962 16.9668 15.5962C17.8691 15.5962 18.6103 16.3481 18.6103 17.2505C18.6103 18.1743 17.8691 18.9263 16.9668 18.9263ZM30.2763 32.1714H31.5117C32.124 32.1714 32.6396 31.8169 32.7363 31.2583L32.9404 30.1734C32.9941 30.1626 33.0263 30.1519 33.0586 30.1411L33.9716 30.7105C34.4658 31.022 35.0781 30.9575 35.5078 30.5064L36.3779 29.6363C36.8076 29.1958 36.8935 28.5835 36.5605 28.0894L35.9804 27.2085C35.9912 27.1656 36.0019 27.1441 36.0234 27.1011L37.0869 26.8755C37.6347 26.7574 38 26.2632 38 25.6509V24.4478C38 23.8462 37.6347 23.3413 37.0869 23.2232L36.0234 23.0083C36.0019 22.9654 35.9912 22.9331 35.9804 22.8902L36.5605 22.0093C36.8935 21.5152 36.8076 20.9136 36.3779 20.4732L35.5078 19.5923C35.0781 19.1519 34.4658 19.0767 33.9716 19.3882L33.0586 19.9575C33.0263 19.9468 32.9941 19.9361 32.9404 19.9253L32.7363 18.8511C32.6396 18.2817 32.124 17.9273 31.5117 17.9273H30.2763C29.664 17.9273 29.1484 18.2817 29.041 18.8511L28.8369 19.9253C28.7939 19.9361 28.7617 19.9468 28.7187 19.9575L27.8056 19.3882C27.3115 19.0767 26.7099 19.1519 26.2802 19.5923L25.4101 20.4732C24.9804 20.9136 24.8945 21.5152 25.2168 22.0093L25.7968 22.8902C25.7861 22.9331 25.7754 22.9654 25.7646 23.0083L24.7011 23.2232C24.1425 23.3413 23.7773 23.8462 23.7773 24.4478V25.6509C23.7773 26.2632 24.1425 26.7574 24.7011 26.8755L25.7646 27.1011C25.7754 27.1441 25.7861 27.1656 25.7968 27.2085L25.2168 28.0894C24.8945 28.5835 24.9804 29.1958 25.4101 29.6363L26.2802 30.5064C26.7099 30.9575 27.3115 31.022 27.8056 30.7105L28.7187 30.1411C28.7617 30.1519 28.7939 30.1626 28.8369 30.1734L29.041 31.2583C29.1484 31.8169 29.664 32.1714 30.2763 32.1714ZM30.5556 30.7427C30.4267 30.7427 30.3623 30.6783 30.33 30.5708L29.9541 29.024C29.5244 28.9273 29.1377 28.7769 28.7295 28.5083L27.3759 29.357C27.29 29.4107 27.1826 29.3999 27.0966 29.3247L26.6132 28.8199C26.5166 28.7232 26.5058 28.6372 26.5703 28.5406L27.3867 27.2193C27.3007 26.9615 27.0107 26.4995 26.9033 25.9732L25.3672 25.6187C25.2597 25.5972 25.1953 25.5113 25.1953 25.4038V24.6949C25.1953 24.5874 25.2597 24.5015 25.3672 24.48L26.9033 24.1255C27.0107 23.5991 27.3007 23.148 27.3867 22.8794L26.5703 21.5581C26.5058 21.4722 26.5166 21.3755 26.6132 21.2788L27.0966 20.7847C27.1826 20.6988 27.29 20.688 27.3759 20.7525L28.7295 21.5904C29.1377 21.3325 29.5244 21.1714 29.9541 21.0747L30.33 19.5279C30.3623 19.4204 30.4267 19.356 30.5556 19.356H31.2216C31.3505 19.356 31.415 19.4204 31.4472 19.5279L31.8232 21.0747C32.2529 21.1714 32.6396 21.3325 33.0478 21.5904L34.4013 20.7525C34.498 20.688 34.5947 20.6988 34.6806 20.7847L35.1748 21.2788C35.2607 21.3755 35.2714 21.4722 35.2177 21.5581L34.3906 22.8794C34.4873 23.148 34.7666 23.5991 34.874 24.1255L36.4101 24.48C36.5175 24.5015 36.582 24.5874 36.582 24.6949V25.4038C36.582 25.5113 36.5175 25.5972 36.4101 25.6187L34.874 25.9732C34.7666 26.4995 34.4873 26.9615 34.3906 27.2193L35.2177 28.5406C35.2714 28.6372 35.2607 28.7232 35.1748 28.8199L34.6806 29.3247C34.5947 29.3999 34.498 29.4107 34.4013 29.357L33.0478 28.5083C32.6396 28.7769 32.2529 28.9273 31.8232 29.024L31.4472 30.5708C31.415 30.6783 31.3505 30.7427 31.2216 30.7427H30.5556ZM30.8886 27.5738C32.2636 27.5738 33.4023 26.4351 33.4023 25.0493C33.4023 23.6743 32.2636 22.5464 30.8886 22.5464C29.4922 22.5464 28.3642 23.6743 28.3642 25.0493C28.3642 26.4243 29.4922 27.5738 30.8886 27.5738ZM30.8886 26.2202C30.2441 26.2202 29.7285 25.6939 29.7285 25.0493C29.7285 24.4156 30.2441 23.9107 30.8886 23.9107C31.5009 23.9107 32.0273 24.4156 32.0273 25.0493C32.0273 25.6831 31.5009 26.2202 30.8886 26.2202Z" fill="black"/>
</g>
<defs>
<clipPath id="clip0_1424_2794">
<rect width="29.4766" height="23.3643" fill="white" transform="translate(8.52341 8.81787)"/>
</clipPath>
</defs>
</svg>
