<svg width="11" height="20" viewBox="0 0 11 20" fill="none" xmlns="http://www.w3.org/2000/svg">
<g clip-path="url(#clip0_1522_3313)">
<path d="M11 9.99463C11 9.72607 10.8925 9.479 10.6884 9.28564L2.18066 0.949707C1.9873 0.76709 1.75098 0.67041 1.47168 0.67041C0.923829 0.67041 0.494141 1.08936 0.494141 1.64795C0.494141 1.9165 0.601563 2.16357 0.773438 2.34619L8.59375 9.99463L0.773438 17.6431C0.601563 17.8257 0.494141 18.062 0.494141 18.3413C0.494141 18.8999 0.923829 19.3188 1.47168 19.3188C1.75098 19.3188 1.9873 19.2222 2.18066 19.0288L10.6884 10.7036C10.8925 10.4995 11 10.2632 11 9.99463Z" fill="black" fill-opacity="0.85"/>
</g>
<defs>
<clipPath id="clip0_1522_3313">
<rect width="10.5059" height="18.6592" fill="white" transform="translate(0.494141 0.67041)"/>
</clipPath>
</defs>
</svg>
