<svg width="44" height="44" viewBox="0 0 44 44" fill="none" xmlns="http://www.w3.org/2000/svg">
<g clip-path="url(#clip0_1522_3306)">
<path d="M14.7256 12.3292L9.30078 17.8614C9.11816 18.0547 9 18.334 9 18.5704C9 19.1397 9.38672 19.5264 9.94531 19.5264C10.2246 19.5264 10.4394 19.4297 10.6221 19.2471L12.8565 16.9375L14.5859 14.9395L14.4785 17.4209V31.2247C14.4785 31.794 14.876 32.1915 15.4453 32.1915C16.0039 32.1915 16.4014 31.794 16.4014 31.2247V17.4209L16.3047 14.9395L18.0234 16.9375L20.2686 19.2471C20.4512 19.4297 20.6553 19.5264 20.9346 19.5264C21.4932 19.5264 21.8799 19.1397 21.8799 18.5704C21.8799 18.334 21.7725 18.0547 21.5791 17.8614L16.165 12.3292C15.7676 11.9102 15.1338 11.8887 14.7256 12.3292ZM28.4219 31.88L33.8359 26.3263C34.0293 26.1436 34.1367 25.8643 34.1367 25.6173C34.1367 25.0479 33.75 24.672 33.1914 24.672C32.9121 24.672 32.708 24.7579 32.5254 24.9405L30.291 27.2501L28.5615 29.2589L28.6582 26.7774V12.9737C28.6582 12.4151 28.2607 12.0069 27.7021 12.0069C27.1328 12.0069 26.7354 12.4151 26.7354 12.9737V26.7774L26.8428 29.2589L25.1133 27.2501L22.8789 24.9405C22.6963 24.7579 22.4814 24.672 22.2129 24.672C21.6543 24.672 21.2568 25.0479 21.2568 25.6173C21.2568 25.8643 21.375 26.1436 21.5684 26.3263L26.9824 31.88C27.3799 32.2989 28.0029 32.3097 28.4219 31.88Z" fill="black" fill-opacity="0.85"/>
</g>
<defs>
<clipPath id="clip0_1522_3306">
<rect width="22" height="44" fill="white" transform="translate(11)"/>
</clipPath>
</defs>
</svg>
