<svg width="16" height="16" viewBox="0 0 16 16" fill="none" xmlns="http://www.w3.org/2000/svg">
<path d="M2.60645 15.2983H12.6753C14.4185 15.2983 15.2817 14.4351 15.2817 12.7251V2.58984C15.2817 0.879883 14.4185 0.0166016 12.6753 0.0166016H2.60645C0.871582 0.0166016 0 0.871582 0 2.58984V12.7251C0 14.4434 0.871582 15.2983 2.60645 15.2983ZM2.62305 13.9619C1.79297 13.9619 1.33643 13.522 1.33643 12.6587V2.65625C1.33643 1.79297 1.79297 1.35303 2.62305 1.35303H12.6587C13.4805 1.35303 13.9453 1.79297 13.9453 2.65625V12.6587C13.9453 13.522 13.4805 13.9619 12.6587 13.9619H2.62305Z" fill="#FF453A"/>
<path d="M4.81445 11.1562C5.00537 11.1562 5.17139 11.0815 5.2959 10.9487L7.64502 8.59131L10.0107 10.9487C10.1353 11.0732 10.293 11.1562 10.4839 11.1562C10.8574 11.1562 11.1479 10.8574 11.1479 10.4839C11.1479 10.293 11.0815 10.1436 10.9487 10.0107L8.59131 7.65332L10.957 5.2793C11.0981 5.13818 11.1562 4.99707 11.1562 4.81445C11.1562 4.44922 10.8657 4.15039 10.4922 4.15039C10.3179 4.15039 10.1768 4.2168 10.0356 4.35791L7.64502 6.72363L5.2793 4.36621C5.15479 4.2334 5.00537 4.16699 4.81445 4.16699C4.44922 4.16699 4.15039 4.45752 4.15039 4.82275C4.15039 5.00537 4.2251 5.16309 4.34961 5.2876L6.70703 7.65332L4.34961 10.019C4.2251 10.1436 4.15039 10.3013 4.15039 10.4839C4.15039 10.8574 4.44922 11.1562 4.81445 11.1562Z" fill="black" fill-opacity="0.85"/>
</svg>
