<svg width="22" height="23" viewBox="0 0 22 23" fill="none" xmlns="http://www.w3.org/2000/svg">
<path d="M10.957 22.5601C16.9512 22.5601 21.9141 17.5972 21.9141 11.6031C21.9141 5.61963 16.9404 0.645996 10.9463 0.645996C4.96289 0.645996 0 5.61963 0 11.6031C0 17.5972 4.97363 22.5601 10.957 22.5601Z" fill="#FD8A65"/>
<path d="M8.27145 14.1919C5.68259 11.6138 4.03903 8.32671 5.98337 6.37163C6.02634 6.32866 6.06931 6.28569 6.13376 6.24272C6.87497 5.69487 7.56247 5.56596 8.01364 6.22124L9.3779 8.14409C9.83981 8.79936 9.74313 9.19682 9.22751 9.72319L8.79782 10.1851C8.65817 10.3355 8.71188 10.5288 8.77634 10.6578C9.00192 11.0337 9.53903 11.6998 10.1514 12.3121C10.7744 12.9351 11.4189 13.4507 11.8057 13.6871C11.9561 13.773 12.1816 13.7945 12.2998 13.6656L12.7402 13.2359C13.2344 12.7417 13.6641 12.6343 14.3193 13.0855C15.2109 13.7193 15.7588 14.0953 16.2744 14.4712C16.9189 14.9546 16.7793 15.7066 16.2852 16.2652C16.2207 16.3404 16.167 16.4156 16.0918 16.4908C14.1475 18.4351 10.8496 16.7915 8.27145 14.1919Z" fill="white" fill-opacity="0.85"/>
</svg>
