<svg width="15" height="10" viewBox="0 0 15 10" fill="none" xmlns="http://www.w3.org/2000/svg">
<g clip-path="url(#clip0_1451_613)">
<path d="M7.21338 9.42016C7.4209 9.42016 7.62842 9.33715 7.76953 9.17944L14.1943 2.59692C14.3354 2.45581 14.4185 2.27319 14.4185 2.06567C14.4185 1.63403 14.0947 1.302 13.6631 1.302C13.4556 1.302 13.2646 1.38501 13.1235 1.51782L6.76514 8.01733H7.65332L1.29492 1.51782C1.16211 1.38501 0.971191 1.302 0.755371 1.302C0.32373 1.302 0 1.63403 0 2.06567C0 2.27319 0.0830078 2.45581 0.224121 2.60522L6.64893 9.17944C6.80664 9.33715 6.99756 9.42016 7.21338 9.42016Z" fill="#FD8A65"/>
</g>
<defs>
<clipPath id="clip0_1451_613">
<rect width="14.4185" height="8.84033" fill="white" transform="translate(0 0.579834)"/>
</clipPath>
</defs>
</svg>
