<svg width="24" height="19" viewBox="0 0 24 19" fill="none" xmlns="http://www.w3.org/2000/svg">
<path d="M11.8809 10.5166C12.3213 10.5166 12.7295 10.3125 13.2021 9.83984L22.5479 0.59082C22.1504 0.204102 21.4092 0.0214844 20.3457 0.0214844H3.05078C2.14844 0.0214844 1.51465 0.193359 1.16016 0.547852L10.5596 9.83984C11.0215 10.3018 11.4297 10.5166 11.8809 10.5166ZM0.268555 16.8008L7.86328 9.29199L0.24707 1.7832C0.0859375 2.08398 0 2.59961 0 3.34082V15.2002C0 15.9629 0.0859375 16.5 0.268555 16.8008ZM3.37305 18.5303H20.668C21.5703 18.5303 22.1934 18.3584 22.5479 18.0146L14.8027 10.3447L14.0938 11.0645C13.3525 11.7734 12.6543 12.0957 11.8809 12.0957C11.0967 12.0957 10.3984 11.7734 9.66797 11.0645L8.94824 10.3447L1.22461 18.0039C1.63281 18.3584 2.3418 18.5303 3.37305 18.5303ZM23.4609 16.79C23.6328 16.4785 23.7188 15.9521 23.7188 15.2002V3.34082C23.7188 2.62109 23.6328 2.10547 23.4824 1.81543L15.8877 9.29199L23.4609 16.79Z" fill="black" fill-opacity="0.85"/>
</svg>
