<svg width="16" height="16" viewBox="0 0 16 16" fill="none" xmlns="http://www.w3.org/2000/svg">
<path d="M2.60645 15.2983H12.6753C14.4185 15.2983 15.2817 14.4351 15.2817 12.7251V2.58984C15.2817 0.879883 14.4185 0.0166016 12.6753 0.0166016H2.60645C0.871582 0.0166016 0 0.871582 0 2.58984V12.7251C0 14.4434 0.871582 15.2983 2.60645 15.2983Z" fill="#FF453A"/>
<path d="M4.85596 11.1313C4.47412 11.1313 4.17529 10.8242 4.17529 10.4424C4.17529 10.2598 4.2417 10.0854 4.37451 9.96094L6.67383 7.65332L4.37451 5.354C4.2417 5.22119 4.17529 5.05518 4.17529 4.87256C4.17529 4.48242 4.47412 4.19189 4.85596 4.19189C5.04688 4.19189 5.19629 4.2583 5.3291 4.38281L7.64502 6.69043L9.97754 4.37451C10.1187 4.2334 10.2764 4.17529 10.4507 4.17529C10.8325 4.17529 11.1396 4.47412 11.1396 4.85596C11.1396 5.04688 11.0815 5.19629 10.9404 5.3457L8.62451 7.65332L10.9321 9.95264C11.0649 10.0771 11.1313 10.2515 11.1313 10.4424C11.1313 10.8242 10.8242 11.1313 10.4341 11.1313C10.2515 11.1313 10.0688 11.0649 9.94434 10.9321L7.64502 8.62451L5.354 10.9321C5.22119 11.0649 5.04688 11.1313 4.85596 11.1313Z" fill="white" fill-opacity="0.85"/>
</svg>
