<svg width="22" height="22" viewBox="0 0 22 22" fill="none" xmlns="http://www.w3.org/2000/svg">
<g clip-path="url(#clip0_1451_1235)">
<path d="M11.0429 21.9517C17.0371 21.9517 22 16.978 22 10.9946C22 5.00049 17.0263 0.0375977 11.0322 0.0375977C5.0488 0.0375977 0.085907 5.00049 0.085907 10.9946C0.085907 16.978 5.05954 21.9517 11.0429 21.9517Z" fill="#65C366"/>
<path d="M5.80075 11.0054C5.80075 10.4468 6.18747 10.0601 6.74607 10.0601H10.1084V6.69776C10.1084 6.13916 10.4843 5.7417 11.0322 5.7417C11.5908 5.7417 11.9775 6.13916 11.9775 6.69776V10.0601H15.3505C15.8984 10.0601 16.2959 10.4468 16.2959 11.0054C16.2959 11.5532 15.8984 11.9185 15.3505 11.9185H11.9775V15.2915C11.9775 15.8501 11.5908 16.2368 11.0322 16.2368C10.4843 16.2368 10.1084 15.8394 10.1084 15.2915V11.9185H6.74607C6.18747 11.9185 5.80075 11.5532 5.80075 11.0054Z" fill="white" fill-opacity="0.85"/>
</g>
<defs>
<clipPath id="clip0_1451_1235">
<rect width="21.9141" height="21.9248" fill="white" transform="translate(0.085907 0.0375977)"/>
</clipPath>
</defs>
</svg>
