<svg width="17" height="18" viewBox="0 0 17 18" fill="none" xmlns="http://www.w3.org/2000/svg">
<g clip-path="url(#clip0_1451_1191)">
<path d="M8.4668 17.4627C13.0986 17.4627 16.9336 13.6194 16.9336 8.99585C16.9336 4.36401 13.0903 0.529053 8.4585 0.529053C3.83496 0.529053 0 4.36401 0 8.99585C0 13.6194 3.84326 17.4627 8.4668 17.4627ZM8.4668 16.0516C4.54883 16.0516 1.41943 12.9139 1.41943 8.99585C1.41943 5.07788 4.54053 1.94018 8.4585 1.94018C12.3765 1.94018 15.5225 5.07788 15.5225 8.99585C15.5225 12.9139 12.3848 16.0516 8.4668 16.0516Z" fill="#007AFF"/>
<path d="M4.40769 12.9055C5.44529 13.9348 6.74021 13.8518 7.94383 12.6398L9.18894 11.403C10.4175 10.1828 10.5171 8.8796 9.46287 7.8337C9.18064 7.54317 8.85691 7.34395 8.62449 7.30245C8.39207 7.46846 8.10984 7.77559 7.97703 8.06612C8.35887 8.12422 8.64939 8.25704 8.84861 8.44796C9.49607 9.10372 9.39646 9.967 8.54978 10.8054L7.34617 12.009C6.53269 12.8225 5.67771 12.9138 5.02195 12.2746C4.37449 11.6271 4.4492 10.7639 5.28758 9.9504L6.14256 9.09542C6.00975 8.77999 6.00144 8.29854 6.13426 7.8918L4.65672 9.35274C3.4531 10.5646 3.3535 11.8596 4.40769 12.9055ZM12.2271 5.06124C11.1895 4.03194 9.89451 4.11495 8.6909 5.32686L7.44578 6.55538C6.21727 7.78389 6.11766 9.07881 7.17186 10.1247C7.45408 10.4235 7.77781 10.6144 8.01023 10.6643C8.24266 10.4899 8.52488 10.1828 8.65769 9.90059C8.27586 9.84249 7.98533 9.70967 7.78611 9.51046C7.13865 8.86299 7.23826 7.99141 8.08494 7.16133L9.28855 5.95772C10.1021 5.14424 10.957 5.05294 11.6128 5.6921C12.2603 6.33956 12.1855 7.20284 11.3472 8.01631L10.4922 8.86299C10.625 9.18672 10.6333 9.65987 10.5005 10.0749L11.978 8.60567C13.1816 7.40206 13.2812 6.10713 12.2271 5.06124Z" fill="black" fill-opacity="0.85"/>
</g>
<defs>
<clipPath id="clip0_1451_1191">
<rect width="16.9336" height="16.9419" fill="white" transform="translate(0 0.529053)"/>
</clipPath>
</defs>
</svg>
