<svg width="23" height="24" viewBox="0 0 23 24" fill="none" xmlns="http://www.w3.org/2000/svg">
<g clip-path="url(#clip0_148_2781)">
<path d="M11.2036 23.019C17.2892 23.019 22.2226 18.0856 22.2226 12C22.2226 5.91435 17.2892 0.980957 11.2036 0.980957C5.11796 0.980957 0.18457 5.91435 0.18457 12C0.18457 18.0856 5.11796 23.019 11.2036 23.019Z" fill="#C7C7CC"/>
<path d="M16.2129 11.2049C16.3047 10.7934 16.2379 10.3624 16.0257 9.99796C15.8136 9.63356 15.4719 9.3626 15.0687 9.23918C15.0261 9.22617 14.9842 9.21335 14.9402 9.20506C14.5287 9.11326 14.0977 9.18009 13.7333 9.39219C13.3689 9.6043 13.0979 9.94607 12.9745 10.3492C12.9615 10.3918 12.9485 10.4344 12.9411 10.4774C12.8492 10.8889 12.9159 11.32 13.1281 11.6844C13.3402 12.0488 13.6821 12.3198 14.0853 12.443C14.1273 12.4559 14.1698 12.4689 14.2134 12.4764C14.6249 12.5682 15.056 12.5014 15.4203 12.2893C15.7847 12.0772 16.0557 11.7354 16.1791 11.3322C16.1919 11.2903 16.2048 11.2483 16.2129 11.2049Z" fill="black"/>
<path d="M10.9857 7.39327L8.61933 10.9855L8.60429 11.0093C8.51093 11.164 8.43687 11.3296 8.38376 11.5023C8.22686 12.0178 8.26506 12.573 8.4911 13.0621C8.71713 13.5513 9.1152 13.9402 9.60947 14.1548L10.8135 14.6774C10.9857 14.7485 11.179 14.7491 11.3517 14.6792C11.5244 14.6093 11.6627 14.4743 11.7369 14.3034C11.8111 14.1325 11.8152 13.9393 11.7484 13.7654C11.6815 13.5915 11.5491 13.4507 11.3795 13.3735L10.1755 12.8509C10.0864 12.8124 10.0054 12.7574 9.93681 12.6887C9.83812 12.5897 9.76802 12.4659 9.73392 12.3303C9.69983 12.1947 9.703 12.0525 9.74311 11.9185C9.7619 11.8571 9.78835 11.7983 9.82183 11.7435L9.21258 11.3769L9.80442 11.7666L12.169 8.17388C12.2215 8.09592 12.2579 8.00834 12.2763 7.9162C12.2946 7.82406 12.2946 7.72919 12.276 7.63708C12.2575 7.54497 12.2209 7.45745 12.1684 7.37957C12.1158 7.3017 12.0483 7.23502 11.9698 7.18339C11.8913 7.13175 11.8034 7.09618 11.7111 7.07875C11.6188 7.06131 11.5239 7.06236 11.432 7.08182C11.3401 7.10127 11.2529 7.13875 11.1756 7.1921C11.0982 7.24544 11.0322 7.31359 10.9814 7.3926L10.9857 7.39327Z" fill="black"/>
<path d="M8.36438 9.15574C8.42637 9.09808 8.50368 9.05954 8.58704 9.04477C8.68749 9.0261 8.791 9.03243 8.88842 9.06322C9.01282 9.10216 9.12487 9.17297 9.21344 9.2686C9.31924 9.37906 9.38913 9.51895 9.41393 9.66988C9.44432 9.85371 9.54567 10.0183 9.69616 10.1281C9.84666 10.2379 10.0343 10.2843 10.2186 10.2572C10.403 10.2301 10.5693 10.1317 10.6818 9.98323C10.7943 9.83472 10.844 9.64797 10.8202 9.46317C10.758 9.05741 10.583 8.67732 10.3151 8.36627C10.0472 8.05522 9.6973 7.82575 9.30525 7.70405C8.98369 7.60437 8.64242 7.58598 8.31201 7.65053C7.96777 7.71695 7.64928 7.87925 7.39324 8.11875C7.32259 8.18189 7.26527 8.25852 7.22465 8.34413C7.18404 8.42974 7.16096 8.52261 7.15676 8.61727C7.15255 8.71194 7.16732 8.80649 7.20019 8.89536C7.23306 8.98423 7.28337 9.06564 7.34816 9.13479C7.41295 9.20394 7.4909 9.25944 7.57745 9.29802C7.664 9.33661 7.75738 9.3575 7.85212 9.35946C7.94686 9.36143 8.04103 9.34444 8.12911 9.30948C8.21718 9.27452 8.29737 9.22232 8.36497 9.15592L8.36438 9.15574Z" fill="black"/>
<path d="M8.06581 16.612C8.48982 16.9494 8.9734 17.2042 9.49143 17.3633C9.60965 17.3994 9.736 17.4322 9.86788 17.4596C10.3642 17.5628 10.8748 17.5769 11.376 17.5012C11.5627 17.4738 11.7475 17.4344 11.9291 17.3833C12.0856 17.3387 12.2153 17.2931 12.3086 17.2563C12.397 17.2236 12.478 17.1737 12.5469 17.1095C12.6158 17.0452 12.6712 16.9679 12.71 16.882C12.7487 16.7961 12.77 16.7034 12.7726 16.6092C12.7752 16.515 12.759 16.4213 12.7251 16.3334C12.6911 16.2455 12.64 16.1652 12.5747 16.0973C12.5095 16.0293 12.4314 15.975 12.3449 15.9375C12.2585 15.9 12.1655 15.8801 12.0713 15.8789C11.9771 15.8776 11.8835 15.8952 11.7962 15.9304C11.7332 15.9545 11.6499 15.9859 11.5414 16.0154C11.3464 16.0704 11.1464 16.1057 10.9443 16.1205C10.6815 16.1397 10.4173 16.1222 10.1594 16.0686C10.0719 16.0502 9.98806 16.0285 9.90886 16.0043C9.56136 15.8975 9.237 15.7264 8.95262 15.4999C8.80508 15.3825 8.61696 15.3286 8.42964 15.3499C8.24233 15.3713 8.07116 15.4662 7.95379 15.6137C7.83643 15.7612 7.78249 15.9494 7.80383 16.1367C7.82517 16.324 7.92004 16.4952 8.06759 16.6125L8.06581 16.612Z" fill="black"/>
</g>
<defs>
<clipPath id="clip0_148_2781">
<rect width="22.0381" height="22.0381" fill="white" transform="translate(0.18457 0.980957)"/>
</clipPath>
</defs>
</svg>
