<svg width="23" height="30" viewBox="0 0 23 30" fill="none" xmlns="http://www.w3.org/2000/svg">
<rect x="1.18457" y="25.8774" width="20" height="4" rx="2" fill="#FD8A65"/>
<g clip-path="url(#clip0_180_1527)">
<path d="M11.2036 22.1606C17.2892 22.1606 22.2226 17.2272 22.2226 11.1416C22.2226 5.05595 17.2892 0.122559 11.2036 0.122559C5.11796 0.122559 0.18457 5.05595 0.18457 11.1416C0.18457 17.2272 5.11796 22.1606 11.2036 22.1606Z" fill="#FD8A65"/>
<path d="M16.2129 10.3465C16.3047 9.93496 16.2379 9.50395 16.0257 9.13956C15.8136 8.77516 15.4719 8.5042 15.0687 8.38079C15.0261 8.36777 14.9842 8.35495 14.9402 8.34666C14.5287 8.25487 14.0977 8.32169 13.7333 8.53379C13.3689 8.7459 13.0979 9.08768 12.9745 9.49084C12.9615 9.5334 12.9485 9.57595 12.9411 9.61896C12.8492 10.0305 12.9159 10.4616 13.1281 10.826C13.3402 11.1904 13.6821 11.4614 14.0853 11.5846C14.1273 11.5975 14.1698 11.6105 14.2134 11.618C14.6249 11.7098 15.056 11.643 15.4203 11.4309C15.7847 11.2188 16.0557 10.877 16.1791 10.4738C16.1919 10.4319 16.2048 10.3899 16.2129 10.3465Z" fill="#804938"/>
<path d="M10.9857 6.53487L8.61933 10.1271L8.60429 10.1509C8.51093 10.3056 8.43687 10.4712 8.38376 10.6439C8.22686 11.1594 8.26506 11.7146 8.4911 12.2037C8.71713 12.6929 9.1152 13.0818 9.60947 13.2964L10.8135 13.819C10.9857 13.8901 11.179 13.8907 11.3517 13.8208C11.5244 13.7509 11.6627 13.6159 11.7369 13.445C11.8111 13.2741 11.8152 13.0809 11.7484 12.907C11.6815 12.7331 11.5491 12.5923 11.3795 12.5151L10.1755 11.9925C10.0864 11.954 10.0054 11.899 9.93681 11.8303C9.83812 11.7313 9.76802 11.6075 9.73392 11.4719C9.69983 11.3363 9.703 11.1941 9.74311 11.0601C9.7619 10.9987 9.78835 10.9399 9.82183 10.8851L9.21258 10.5185L9.80442 10.9082L12.169 7.31548C12.2215 7.23752 12.2579 7.14995 12.2763 7.05781C12.2946 6.96567 12.2946 6.87079 12.276 6.77868C12.2575 6.68657 12.2209 6.59905 12.1684 6.52118C12.1158 6.4433 12.0483 6.37663 11.9698 6.32499C11.8913 6.27336 11.8034 6.23778 11.7111 6.22035C11.6188 6.20292 11.5239 6.20396 11.432 6.22342C11.3401 6.24287 11.2529 6.28035 11.1756 6.3337C11.0982 6.38704 11.0322 6.45519 10.9814 6.5342L10.9857 6.53487Z" fill="#804938"/>
<path d="M8.36438 8.29734C8.42637 8.23968 8.50368 8.20115 8.58704 8.18638C8.68749 8.1677 8.791 8.17403 8.88842 8.20482C9.01282 8.24376 9.12487 8.31457 9.21344 8.4102C9.31924 8.52066 9.38913 8.66055 9.41393 8.81148C9.44432 8.99531 9.54567 9.15985 9.69616 9.2697C9.84666 9.37955 10.0343 9.42591 10.2186 9.39882C10.403 9.37172 10.5693 9.27334 10.6818 9.12483C10.7943 8.97632 10.844 8.78957 10.8202 8.60477C10.758 8.19901 10.583 7.81892 10.3151 7.50787C10.0472 7.19683 9.6973 6.96735 9.30525 6.84565C8.98369 6.74597 8.64242 6.72759 8.31201 6.79213C7.96777 6.85856 7.64928 7.02085 7.39324 7.26035C7.32259 7.32349 7.26527 7.40012 7.22465 7.48573C7.18404 7.57134 7.16096 7.66421 7.15676 7.75888C7.15255 7.85354 7.16732 7.94809 7.20019 8.03696C7.23306 8.12584 7.28337 8.20724 7.34816 8.27639C7.41295 8.34554 7.4909 8.40104 7.57745 8.43962C7.664 8.47821 7.75738 8.4991 7.85212 8.50107C7.94686 8.50303 8.04103 8.48604 8.12911 8.45108C8.21718 8.41613 8.29737 8.36392 8.36497 8.29752L8.36438 8.29734Z" fill="#804938"/>
<path d="M8.06581 15.7536C8.48982 16.091 8.9734 16.3458 9.49143 16.5049C9.60965 16.541 9.736 16.5738 9.86788 16.6012C10.3642 16.7044 10.8748 16.7185 11.376 16.6428C11.5627 16.6154 11.7475 16.576 11.9291 16.5249C12.0856 16.4803 12.2153 16.4347 12.3086 16.3979C12.397 16.3652 12.478 16.3153 12.5469 16.2511C12.6158 16.1868 12.6712 16.1095 12.71 16.0236C12.7487 15.9377 12.77 15.845 12.7726 15.7508C12.7752 15.6566 12.759 15.5629 12.7251 15.475C12.6911 15.3871 12.64 15.3068 12.5747 15.2389C12.5095 15.1709 12.4314 15.1166 12.3449 15.0791C12.2585 15.0416 12.1655 15.0217 12.0713 15.0205C11.9771 15.0192 11.8835 15.0368 11.7962 15.072C11.7332 15.0961 11.6499 15.1275 11.5414 15.157C11.3464 15.2121 11.1464 15.2473 10.9443 15.2621C10.6815 15.2813 10.4173 15.2638 10.1594 15.2102C10.0719 15.1918 9.98806 15.1701 9.90886 15.1459C9.56136 15.0391 9.237 14.868 8.95262 14.6415C8.80508 14.5241 8.61696 14.4702 8.42964 14.4915C8.24233 14.5129 8.07116 14.6078 7.95379 14.7553C7.83643 14.9028 7.78249 15.091 7.80383 15.2783C7.82517 15.4656 7.92004 15.6368 8.06759 15.7541L8.06581 15.7536Z" fill="#804938"/>
</g>
<defs>
<clipPath id="clip0_180_1527">
<rect width="22.0381" height="22.0381" fill="white" transform="translate(0.18457 0.122559)"/>
</clipPath>
</defs>
</svg>
