<svg width="23" height="45" viewBox="0 0 23 45" fill="none" xmlns="http://www.w3.org/2000/svg">
<path d="M7.5 22.7051C7.5 22.9126 7.57471 23.0952 7.73242 23.2529L14.3149 29.686C14.456 29.8354 14.6387 29.9102 14.8545 29.9102C15.2861 29.9102 15.6182 29.5864 15.6182 29.1548C15.6182 28.939 15.5269 28.7563 15.394 28.6152L9.35107 22.7051L15.394 16.7949C15.5269 16.6538 15.6182 16.4629 15.6182 16.2554C15.6182 15.8237 15.2861 15.5 14.8545 15.5C14.6387 15.5 14.456 15.5747 14.3149 15.7158L7.73242 22.1572C7.57471 22.3066 7.5 22.4976 7.5 22.7051Z" fill="black"/>
</svg>
