<svg width="26" height="25" viewBox="0 0 26 25" fill="none" xmlns="http://www.w3.org/2000/svg">
<path d="M3.37305 22.4117H21.957C24.2129 22.4117 25.3301 21.3052 25.3301 19.0923V5.96533C25.3301 3.75244 24.2129 2.63525 21.957 2.63525H3.37305C1.12793 2.63525 0 3.75244 0 5.96533V19.0923C0 21.3052 1.12793 22.4117 3.37305 22.4117Z" fill="#FD8A65"/>
<path d="M15.2002 8.98389C14.8135 8.98389 14.5234 8.69385 14.5234 8.31788C14.5234 7.95264 14.8135 7.6626 15.2002 7.6626H21.0654C21.4414 7.6626 21.7314 7.95264 21.7314 8.31788C21.7314 8.69385 21.4414 8.98389 21.0654 8.98389H15.2002ZM15.2002 13.1949C14.8135 13.1949 14.5234 12.8941 14.5234 12.5181C14.5234 12.1528 14.8135 11.8735 15.2002 11.8735H21.0654C21.4414 11.8735 21.7314 12.1528 21.7314 12.5181C21.7314 12.8941 21.4414 13.1949 21.0654 13.1949H15.2002ZM15.2002 17.3951C14.8135 17.3951 14.5234 17.1158 14.5234 16.7505C14.5234 16.3746 14.8135 16.0738 15.2002 16.0738H21.0654C21.4414 16.0738 21.7314 16.3746 21.7314 16.7505C21.7314 17.1158 21.4414 17.3951 21.0654 17.3951H15.2002ZM4.00684 17.4703C3.65234 17.4703 3.48047 17.2339 3.48047 16.9117C3.48047 15.9019 4.98438 13.3023 8.19629 13.3023C11.4082 13.3023 12.9229 15.9019 12.9229 16.9117C12.9229 17.2339 12.751 17.4703 12.3965 17.4703H4.00684ZM8.19629 12.5503C6.89648 12.5503 5.84375 11.4546 5.84375 9.98292C5.84375 8.60792 6.89648 7.46924 8.19629 7.46924C9.50684 7.46924 10.5488 8.60792 10.5488 9.98292C10.5488 11.4546 9.50684 12.561 8.19629 12.5503Z" fill="white" fill-opacity="0.85"/>
</svg>
