<svg width="44" height="44" viewBox="0 0 44 44" fill="none" xmlns="http://www.w3.org/2000/svg">
<path d="M21.4092 33.9668H23.5791C24.4062 33.9668 25.04 33.4619 25.2334 32.667L25.6953 30.6582L26.0391 30.54L27.79 31.6143C28.4883 32.0547 29.2939 31.9473 29.8848 31.3564L31.3887 29.8633C31.9795 29.2725 32.0869 28.4561 31.6465 27.7686L30.5508 26.0283L30.6797 25.7061L32.6885 25.2334C33.4727 25.04 33.9883 24.3955 33.9883 23.5791V21.4521C33.9883 20.6357 33.4834 19.9912 32.6885 19.7978L30.7012 19.3145L30.5615 18.9707L31.6572 17.2305C32.0977 16.543 31.9902 15.7373 31.3994 15.1357L29.8955 13.6318C29.3154 13.0518 28.5098 12.9443 27.8115 13.374L26.0605 14.4482L25.6953 14.3086L25.2334 12.2998C25.04 11.5049 24.4062 11 23.5791 11H21.4092C20.582 11 19.9482 11.5049 19.7549 12.2998L19.2822 14.3086L18.917 14.4482L17.1768 13.374C16.4785 12.9443 15.6621 13.0518 15.082 13.6318L13.5889 15.1357C12.998 15.7373 12.8799 16.543 13.331 17.2305L14.416 18.9707L14.2871 19.3145L12.2998 19.7978C11.5049 19.9912 11 20.6357 11 21.4521V23.5791C11 24.3955 11.5156 25.04 12.2998 25.2334L14.3086 25.7061L14.4268 26.0283L13.3418 27.7686C12.8906 28.4561 13.0088 29.2725 13.5996 29.8633L15.0928 31.3564C15.6836 31.9473 16.5 32.0547 17.1982 31.6143L18.9385 30.54L19.2822 30.6582L19.7549 32.667C19.9482 33.4619 20.582 33.9668 21.4092 33.9668ZM21.5811 32.291C21.3984 32.291 21.3018 32.2158 21.2695 32.0439L20.625 29.3799C19.9697 29.2188 19.3574 28.9609 18.8955 28.6709L16.5537 30.1104C16.4248 30.207 16.2852 30.1855 16.1562 30.0566L14.8887 28.7891C14.7705 28.6709 14.7598 28.542 14.8457 28.3916L16.2852 26.0713C16.0381 25.6201 15.7588 25.0078 15.5869 24.3525L12.9229 23.7188C12.751 23.6865 12.6758 23.5898 12.6758 23.4072V21.6133C12.6758 21.4199 12.7402 21.334 12.9229 21.3018L15.5762 20.6572C15.748 19.959 16.0703 19.3252 16.2637 18.9277L14.835 16.6074C14.7383 16.4463 14.749 16.3174 14.8672 16.1885L16.1455 14.9424C16.2744 14.8135 16.3926 14.792 16.5537 14.8887L18.874 16.2959C19.3359 16.0381 19.9912 15.7695 20.6357 15.5869L21.2695 12.9229C21.3018 12.751 21.3984 12.6758 21.5811 12.6758H23.4072C23.5898 12.6758 23.6865 12.751 23.708 12.9229L24.3633 15.6084C25.0293 15.7803 25.6094 16.0488 26.0928 16.3066L28.4238 14.8887C28.5957 14.792 28.7031 14.8135 28.8428 14.9424L30.1104 16.1885C30.2393 16.3174 30.2393 16.4463 30.1426 16.6074L28.7139 18.9277C28.918 19.3252 29.2295 19.959 29.4014 20.6572L32.0654 21.3018C32.2373 21.334 32.3125 21.4199 32.3125 21.6133V23.4072C32.3125 23.5898 32.2266 23.6865 32.0654 23.7188L29.3906 24.3525C29.2188 25.0078 28.9502 25.6201 28.6924 26.0713L30.1318 28.3916C30.2178 28.542 30.2178 28.6709 30.0889 28.7891L28.832 30.0566C28.6924 30.1855 28.5635 30.207 28.4238 30.1104L26.082 28.6709C25.6201 28.9609 25.0186 29.2188 24.3633 29.3799L23.708 32.0439C23.6865 32.2158 23.5898 32.291 23.4072 32.291H21.5811ZM22.4941 26.5869C24.7393 26.5869 26.5869 24.7393 26.5869 22.4834C26.5869 20.249 24.7393 18.4014 22.4941 18.4014C20.249 18.4014 18.3906 20.249 18.3906 22.4834C18.3906 24.7285 20.2383 26.5869 22.4941 26.5869ZM22.4941 24.9219C21.1621 24.9219 20.0664 23.8262 20.0664 22.4834C20.0664 21.1621 21.1621 20.0664 22.4941 20.0664C23.8047 20.0664 24.9004 21.1621 24.9004 22.4834C24.9004 23.8154 23.8047 24.9219 22.4941 24.9219Z" fill="black" fill-opacity="0.85"/>
</svg>
