<svg width="20" height="21" viewBox="0 0 20 21" fill="none" xmlns="http://www.w3.org/2000/svg">
<path d="M5.45703 15.2217C8.56152 18.3262 12.332 20.7217 15.415 20.7217C16.8008 20.7217 18.0146 20.2383 18.9922 19.1641C19.5615 18.5303 19.916 17.7891 19.916 17.0586C19.916 16.5215 19.7119 16.0059 19.207 15.6406L15.9092 13.2988C15.4043 12.9551 14.9854 12.7832 14.5986 12.7832C14.1152 12.7832 13.6748 13.0625 13.1807 13.5459L12.418 14.2979C12.2998 14.416 12.1494 14.4697 12.0098 14.4697C11.8486 14.4697 11.6875 14.4053 11.5801 14.3516C10.9141 13.9971 9.77539 13.0195 8.71191 11.9668C7.65918 10.9141 6.68164 9.77539 6.33789 9.10938C6.28418 8.99121 6.21973 8.84082 6.21973 8.67969C6.21973 8.54004 6.2627 8.40039 6.38086 8.28223L7.14355 7.49805C7.61621 7.00391 7.90625 6.57422 7.90625 6.08008C7.90625 5.69336 7.72363 5.27441 7.36914 4.76953L5.05957 1.51465C4.68359 0.999022 4.15723 0.773438 3.57715 0.773438C2.86816 0.773438 2.1377 1.0957 1.50391 1.70801C0.461914 2.70703 0 3.94238 0 5.30664C0 8.38965 2.35254 12.1279 5.45703 15.2217Z" fill="black"/>
</svg>
