<svg width="16" height="16" viewBox="0 0 16 16" fill="none" xmlns="http://www.w3.org/2000/svg">
<path d="M2.60645 15.2983H12.6753C14.4185 15.2983 15.2817 14.4351 15.2817 12.7251V2.58984C15.2817 0.879883 14.4185 0.0166016 12.6753 0.0166016H2.60645C0.871582 0.0166016 0 0.871582 0 2.58984V12.7251C0 14.4434 0.871582 15.2983 2.60645 15.2983ZM2.62305 13.9619C1.79297 13.9619 1.33643 13.522 1.33643 12.6587V2.65625C1.33643 1.79297 1.79297 1.35303 2.62305 1.35303H12.6587C13.4805 1.35303 13.9453 1.79297 13.9453 2.65625V12.6587C13.9453 13.522 13.4805 13.9619 12.6587 13.9619H2.62305Z" fill="#FD8A65"/>
<path d="M5.76074 11.7539C5.97656 11.9614 6.4082 11.9448 6.64062 11.729L10.0938 8.46678C10.5669 8.03514 10.5669 7.27146 10.0938 6.83982L6.64062 3.57762C6.3833 3.33689 6.00146 3.32859 5.76904 3.55271C5.51172 3.79344 5.50342 4.20848 5.75244 4.4409L9.16406 7.645L5.75244 10.8657C5.51172 11.0981 5.50342 11.4966 5.76074 11.7539Z" fill="black" fill-opacity="0.85"/>
</svg>
