<svg width="23" height="22" viewBox="0 0 23 22" fill="none" xmlns="http://www.w3.org/2000/svg">
<path d="M11.1257 21.9248C17.1199 21.9248 22.0828 16.9619 22.0828 10.9678C22.0828 4.98438 17.1091 0.0107422 11.115 0.0107422C5.13159 0.0107422 0.168701 4.98438 0.168701 10.9678C0.168701 16.9619 5.14233 21.9248 11.1257 21.9248Z" fill="#FD8A65"/>
<path d="M6.06616 16.5967C5.61499 16.5967 5.41089 16.3066 5.41089 15.8984C5.41089 14.6953 7.23706 11.5479 11.1257 11.5479C15.0144 11.5479 16.8406 14.6953 16.8406 15.8984C16.8406 16.3066 16.6365 16.5967 16.1853 16.5967H6.06616ZM11.1257 10.6348C9.55737 10.624 8.27905 9.30273 8.27905 7.51953C8.27905 5.86523 9.55737 4.49023 11.1257 4.49023C12.6941 4.49023 13.9724 5.86523 13.9724 7.51953C13.9724 9.30273 12.6941 10.6455 11.1257 10.6348Z" fill="white" fill-opacity="0.85"/>
</svg>
